<?xml version="1.0" encoding="UTF-8"?>
<svg xmlns="http://www.w3.org/2000/svg" viewBox="0 0 880 998.32">
<defs>
<style>.cls-1{fill:#a02128;}</style>
</defs>
<title>VinoRama</title>
<g id="Layer_2" data-name="Layer 2">
<g id="Layer_1-2" data-name="Layer 1">
<path class="cls-1" d="M310.27,613.43c.27,31.5,16.74,57,34.94,79.7,16.38,20.46,29.43,43.56,49.73,61.37,17.63,15.46,26.36,37.13,23.51,61.43-4.05,34.58,6.73,69.36-9.16,104.33-18.92,41.64-57.31,76.21-101,76.82-73.14,1-146.32,1.46-219.44-.09C29.83,995.74-.66,962.4,0,904c.22-19.17,5.41-37.41,9.52-56.16,20.69-94.28,36.22-189.68,55.76-284.24,15-72.63,31.86-144.79,43.22-218.2,6.71-43.28,61-84.83,106.7-86.67,7.12-.29,14.33-.66,21.4,0,16.64,1.6,21.27-6.07,20.29-21.79-1.22-19.53.35-39.23-.32-58.82-2.69-79.33,49.7-138.59,120.13-165.55,74.89-28.66,141.87-6.36,197,45.1,29.88,27.92,50.2,66.64,49.3,111.48-.25,12.47-.16,25,.18,37.44.43,15.77-4.07,35,3.33,46.4,8.76,13.51,29.8,5.91,45.1,5.29,36.91-1.52,93.4,51.09,100.8,94,14.93,86.56,34.82,172.28,51.29,258.47,12,62.67,27.17,125,35.73,188.48,4.8,35.63,20.91,69.39,20.61,106.49-.46,55.18-29.71,89.36-85.52,91C719.61,999,644.6,998.56,569.7,997c-55.25-1.18-105.12-52.61-108.49-107.91-.1-1.78,0-3.57,0-5.35-3.39-98.53-1.79-97.28,59.88-176.38,52.73-67.65,75.53-143.34,49.44-229.87-5.38-17.83-3.46-41.1-16.79-53.07-14.37-12.89-37.43-4.23-56.61-4.57-48.15-.86-96.34-.45-144.51-.21-25,.12-37.58,6.66-39.78,29.67-3,31.31-17.5,60.78-12.89,93.23,2.24,15.76.88,32,1.14,48.07C300.89,599.49,297.05,609.89,310.27,613.43ZM436.06,258.65c28.48,0,57,.11,85.45,0,40.75-.19,36.13,4.57,36.33-37.36,0-8.89-.35-17.81.06-26.68,2.3-50.38-21-86.11-63.34-110.92-57.44-33.69-116.88-6.94-152.24,40-28.87,38.28-18,80.72-20.18,122-.67,12.61,8.38,13.08,17.79,13C372,258.57,404,258.65,436.06,258.65Z"/>
<path class="cls-1" d="M321.72,558.52c43.88-41.78,50-37.64,90-20.61C437,548.64,459.86,563.55,486.81,572c19.93,6.27,35.22,9.89,54.2-.29,14.5-7.77,17.77,3,17,15.47-2.9,46.71-54.1,93.68-105.44,100.18-35.31,4.47-66.91-6.73-93.46-24.9-22.3-15.26-31.69-44.09-37.81-71.48Z"/></g></g>
</svg>